<svg width="382" height="125" viewBox="0 0 382 125" fill="none" xmlns="http://www.w3.org/2000/svg">
<path d="M159.909 54.5C159.591 53.3939 159.144 52.4167 158.568 51.5682C157.992 50.7045 157.288 49.9773 156.455 49.3864C155.636 48.7803 154.697 48.3182 153.636 48C152.591 47.6818 151.432 47.5227 150.159 47.5227C147.78 47.5227 145.689 48.1136 143.886 49.2955C142.098 50.4773 140.705 52.197 139.705 54.4545C138.705 56.697 138.205 59.4394 138.205 62.6818C138.205 65.9242 138.697 68.6818 139.682 70.9546C140.667 73.2273 142.061 74.9621 143.864 76.1591C145.667 77.3409 147.795 77.9318 150.25 77.9318C152.477 77.9318 154.379 77.5379 155.955 76.75C157.545 75.947 158.758 74.8182 159.591 73.3636C160.439 71.9091 160.864 70.1894 160.864 68.2045L162.864 68.5H150.864V61.0909H170.341V66.9545C170.341 71.0455 169.477 74.5606 167.75 77.5C166.023 80.4242 163.644 82.6818 160.614 84.2727C157.583 85.8485 154.114 86.6364 150.205 86.6364C145.841 86.6364 142.008 85.6742 138.705 83.75C135.402 81.8106 132.826 79.0606 130.977 75.5C129.144 71.9242 128.227 67.6818 128.227 62.7727C128.227 59 128.773 55.6364 129.864 52.6818C130.97 49.7121 132.515 47.197 134.5 45.1364C136.485 43.0758 138.795 41.5076 141.432 40.4318C144.068 39.3561 146.924 38.8182 150 38.8182C152.636 38.8182 155.091 39.2045 157.364 39.9773C159.636 40.7349 161.652 41.8106 163.409 43.2045C165.182 44.5985 166.629 46.2576 167.75 48.1818C168.871 50.0909 169.591 52.197 169.909 54.5H159.909Z" fill="#2F2F33"/>
<path d="M193.324 86.6818C189.794 86.6818 186.741 85.9318 184.165 84.4318C181.604 82.9167 179.627 80.8106 178.233 78.1136C176.839 75.4015 176.142 72.2576 176.142 68.6818C176.142 65.0758 176.839 61.9242 178.233 59.2273C179.627 56.5152 181.604 54.4091 184.165 52.9091C186.741 51.3939 189.794 50.6364 193.324 50.6364C196.854 50.6364 199.9 51.3939 202.46 52.9091C205.036 54.4091 207.021 56.5152 208.415 59.2273C209.809 61.9242 210.506 65.0758 210.506 68.6818C210.506 72.2576 209.809 75.4015 208.415 78.1136C207.021 80.8106 205.036 82.9167 202.46 84.4318C199.9 85.9318 196.854 86.6818 193.324 86.6818ZM193.369 79.1818C194.975 79.1818 196.316 78.7273 197.392 77.8182C198.468 76.8939 199.278 75.6364 199.824 74.0455C200.384 72.4545 200.665 70.6439 200.665 68.6136C200.665 66.5833 200.384 64.7727 199.824 63.1818C199.278 61.5909 198.468 60.3333 197.392 59.4091C196.316 58.4848 194.975 58.0227 193.369 58.0227C191.748 58.0227 190.384 58.4848 189.278 59.4091C188.188 60.3333 187.362 61.5909 186.801 63.1818C186.256 64.7727 185.983 66.5833 185.983 68.6136C185.983 70.6439 186.256 72.4545 186.801 74.0455C187.362 75.6364 188.188 76.8939 189.278 77.8182C190.384 78.7273 191.748 79.1818 193.369 79.1818Z" fill="#2F2F33"/>
<path d="M248.222 51.0909L236.017 86H225.108L212.903 51.0909H223.131L230.381 76.0682H230.744L237.972 51.0909H248.222Z" fill="#2F2F33"/>
<path d="M263.835 86L250.517 39.4545H261.267L268.972 71.7955H269.358L277.858 39.4545H287.062L295.54 71.8636H295.949L303.653 39.4545H314.403L301.085 86H291.494L282.631 55.5682H282.267L273.426 86H263.835Z" fill="#2F2F33"/>
<path d="M331.648 86.6818C328.057 86.6818 324.966 85.9545 322.375 84.5C319.799 83.0303 317.814 80.9545 316.42 78.2727C315.027 75.5758 314.33 72.3864 314.33 68.7045C314.33 65.1136 315.027 61.9621 316.42 59.25C317.814 56.5379 319.777 54.4242 322.307 52.9091C324.852 51.3939 327.837 50.6364 331.261 50.6364C333.564 50.6364 335.708 51.0076 337.693 51.75C339.693 52.4773 341.436 53.5758 342.92 55.0455C344.42 56.5152 345.587 58.3636 346.42 60.5909C347.254 62.803 347.67 65.3939 347.67 68.3636V71.0227H318.193V65.0227H338.557C338.557 63.6288 338.254 62.3939 337.648 61.3182C337.042 60.2424 336.201 59.4015 335.125 58.7955C334.064 58.1742 332.83 57.8636 331.42 57.8636C329.951 57.8636 328.648 58.2045 327.511 58.8864C326.39 59.553 325.511 60.4545 324.875 61.5909C324.239 62.7121 323.913 63.9621 323.898 65.3409V71.0455C323.898 72.7727 324.216 74.2652 324.852 75.5227C325.504 76.7803 326.42 77.75 327.602 78.4318C328.784 79.1136 330.186 79.4546 331.807 79.4546C332.883 79.4546 333.867 79.303 334.761 79C335.655 78.697 336.42 78.2424 337.057 77.6364C337.693 77.0303 338.178 76.2879 338.511 75.4091L347.466 76C347.011 78.1515 346.08 80.0303 344.67 81.6364C343.277 83.2273 341.473 84.4697 339.261 85.3636C337.064 86.2424 334.527 86.6818 331.648 86.6818Z" fill="#2F2F33"/>
<path d="M363.67 39.4545V86H353.989V39.4545H363.67Z" fill="#2F2F33"/>
<path d="M381.108 39.4545V86H371.426V39.4545H381.108Z" fill="#2F2F33"/>
<path d="M86.6377 57.4519C86.716 56.5345 86.759 55.6096 86.759 54.6719C86.759 37.1327 72.5406 22.9118 54.9989 22.9118C37.4571 22.9118 23.2412 37.1302 23.2412 54.6719C23.2412 55.6096 23.2842 56.5345 23.3625 57.4519H86.6377Z" fill="#2F2F33"/>
<path d="M73.0005 0.00117296C66.9298 -0.0459445 62.1164 1.37254 59.1951 2.48104V20.1699C62.1139 19.0614 66.9274 17.6429 73.0005 17.6901C78.7737 17.7347 83.3664 19.0837 86.2257 20.1699V2.48104C83.3664 1.39486 78.7737 0.0458106 73.0005 0.00117296Z" fill="#2F2F33"/>
<path d="M50.8048 27.0998V3.6676e-07L59.1953 0V27.0998H50.8048Z" fill="#2F2F33"/>
<path d="M14.5393 62.3579H95.461V70.7484H14.5393V62.3579Z" fill="#2F2F33"/>
<path d="M0 75.6543H110V84.0448H0V75.6543Z" fill="#2F2F33"/>
<path d="M4.97222 111.674L4.97221 88.9508H20.8672L20.8672 111.674H4.97222Z" fill="#2F2F33"/>
<path d="M33.0257 111.674V88.9508H48.9207V111.674H33.0257Z" fill="#2F2F33"/>
<path d="M61.0793 111.674V88.9508H76.9743V111.674H61.0793Z" fill="#2F2F33"/>
<path d="M89.1332 111.674V88.9508H105.028V111.674H89.1332Z" fill="#2F2F33"/>
<path d="M0 116.58H110V124.97H0V116.58Z" fill="#2F2F33"/>
</svg>
